<?xml version="1.0" standalone="no"?><!DOCTYPE svg PUBLIC "-//W3C//DTD SVG 1.1//EN" "http://www.w3.org/Graphics/SVG/1.1/DTD/svg11.dtd" [<!ENTITY nbsp " ">]><svg data-noselect="" viewBox="160.21435546875 58.92858886719 482.07559214272 482.07559214272" width="482.07559214272" ref="svg_canvas" height="482.07559214272" preserveAspectRatio="none" version="1.1" xmlns="http://www.w3.org/2000/svg" style="background: #ffffff;">
    <def></def>
    <g id="shape_dNAWrGAqQE" ref="shape_dNAWrGAqQE" key="shape_dNAWrGAqQE" transform="translate(240.21435546875,138.92858886719) rotate(0,161.03779607136,161.03779607136) scale(1,1)" style="cursor:move;display:inline;opacity:1;" filter="">
            <g style="display:inline"><rect fill="rgba(0,0,0,0)" width="342.07559214272" height="342.07559214272" x="-10" y="-10"></rect><svg version="1.1" xmlns="http://www.w3.org/2000/svg" xmlns:xlink="http://www.w3.org/1999/xlink" x="0px" y="0px" shapetype="round rect" width="322.07559214272" height="322.07559214272" viewBox="0 0 100 100" enable-background="new 0 0 100 100" xml:space="preserve" preserveAspectRatio="none" class="style-removed" data-parent="shape_dNAWrGAqQE">
	 <linearGradient class="" x1="0%" y1="0%" x2="0%" y2="100%" gradientTransform="translate(0.5,0.5) rotate(0) translate(-0.5,-0.5)">
		<stop id="stop1_SaYNeYs1Mj" offset="0%" class="" stop-color="#05a"></stop>
		<stop id="stop2_VfDLanSdB6" offset="100%" class="" stop-color="#0a5"></stop>
	</linearGradient>

	<radialGradient class="" cx="50%" cy="50%" r="50%" fx="50%" fy="50%">
		<stop offset="0%" class="" stop-color="#05a"></stop>
		<stop offset="100%" class="" stop-color="#0a5"></stop>
	</radialGradient>
	<clipPath id="f_round_rect_ijWPfh63Pk" class="">
		<rect fill="none" class="" stroke="#dddddd" stroke-width="1" stroke-miterlimit="10" x="0" y="0" width="100" height="100" rx="20" ry="20"></rect>
	</clipPath>
	<rect class="" fill="rgb(3, 215, 215)" opacity="1" x="1" y="1" width="98" height="98" rx="20" ry="20" stroke-width="0"></rect>
	<rect class="" fill="none" stroke="#dddddd" stroke-width="0" stroke-miterlimit="10" x="0" y="0" width="100" height="100" rx="20" ry="20" clip-path="url(#f_round_rect_ijWPfh63Pk)"></rect>
</svg></g>
        </g><g id="shape_WM3GXsDhNq" ref="shape_WM3GXsDhNq" key="shape_WM3GXsDhNq" transform="translate(151.53215154011002,-195.53361506145) rotate(0,195.36,479.5) scale(1,1)" style="cursor:move;display:inline;opacity:1;" filter="">
            <g style="display:inline"><svg xmlns="http://www.w3.org/2000/svg" version="1.1" xmlns:xlink="http://www.w3.org/1999/xlink" width="646" height="959" viewBox="0 0 646 959" preserveAspectRatio="none" data-parent="shape_WM3GXsDhNq"><rect fill="rgba(0,0,0,0)" width="114" height="133" x="133" y="413"></rect><g data-width="113.05000000000001" transform="translate(133, 0)"><path d="M49.88-101.35L68.89-101.35L106.53-85.92L105.60-76.21L83.79-83.39L82.86-75.41L63.44-75.41L63.04-71.02L97.22-71.02L96.29-61.05L61.98-61.05L61.05-51.47L74.88-51.47L77.01-58.39L90.84-58.39L86.18-51.47L101.75-51.47L100.81-42.16L6.65-42.16L7.58-51.47L23.54-51.47L19.95-58.39L33.78-58.39L34.45-51.47L48.41-51.47L49.48-61.05L15.16-61.05L16.23-71.02L50.41-71.02L50.94-75.41L31.92-75.41L32.72-83.52L9.04-76.21L9.98-85.92L49.88-101.35ZM58.92-91.50L35.51-84.32L80.86-84.32L58.92-91.50ZM34.98 3.06L44.16 3.06L41.90 7.98L47.22 7.85L46.28 17.56L-2.66 19.55L-1.60 9.71L3.86 9.71L2.39 3.06L11.44 3.06L11.57 9.18L17.29 8.91L18.22 0.40L2.00 0.40L3.06-9.58L19.15-9.58L19.68-13.43L12.64-13.43L13.57-22.74L38.44-22.74L26.73-31.12L0.53-14.63L1.60-24.21L19.29-39.63L35.64-39.63L50.94-24.21L49.88-14.63L38.70-22.61L37.64-13.43L30.32-13.43L29.79-9.58L46.42-9.58L45.49 0.40L28.86 0.40L27.93 8.64L34.05 8.25L34.98 3.06ZM52.93-24.21L70.89-39.63L87.12-39.63L102.54-24.21L101.48-14.63L90.17-22.61L89.38-13.43L81.80-13.43L81.26-9.31L97.62-9.31L96.69 0.53L80.33 0.53L79.40 9.71L84.99 9.71L86.45 3.33L95.36 3.33L92.57 9.71L98.15 9.71L97.09 19.55L48.81 19.55L49.88 9.71L55.73 9.71L54.00 3.33L63.04 3.33L63.18 9.71L68.89 9.71L69.69 0.53L53.33 0.53L54.26-9.31L70.62-9.31L71.16-13.43L63.97-13.43L64.90-22.74L90.04-22.74L78.20-31.12L52.00-14.63L52.93-24.21Z" transform="translate(0 532) skewX(0)" fill="rgb(255, 255, 255)" stroke="rgb(255, 255, 255)" stroke-width="0.222" data-glyph-w="113.05000000000001" data-glyph-h="159.60000000000002" data-glyph-ascender="133" data-glyph-descender="-26.6"></path></g></svg></g>
        </g><g id="shape_8BDIliL8Q9" ref="shape_8BDIliL8Q9" key="shape_8BDIliL8Q9" transform="translate(276.25215154011,-195.53361506145) rotate(0,195.36,479.5) scale(1,1)" style="cursor:move;display:inline;opacity:1;" filter="">
            <g style="display:inline"><svg xmlns="http://www.w3.org/2000/svg" version="1.1" xmlns:xlink="http://www.w3.org/1999/xlink" width="621" height="959" viewBox="0 0 621 959" preserveAspectRatio="none" data-parent="shape_8BDIliL8Q9"><rect fill="rgba(0,0,0,0)" width="89" height="133" x="133" y="413"></rect><g data-width="88.578" transform="translate(133, 0)"><path d="M11.97-96.82L80.73-96.82L79.27-83.13L67.56-48.41L78.34-48.41L71.42 17.02L0 17.02L11.97-96.82ZM23.54-83.13L19.95-48.41L54.53-48.41L66.23-83.13L23.54-83.13ZM14.36 4.66L59.72 4.66L63.97-35.91L18.62-35.91L14.36 4.66Z" transform="translate(0 532) skewX(0)" fill="rgb(255, 255, 255)" stroke="rgb(255, 255, 255)" stroke-width="0.222" data-glyph-w="88.578" data-glyph-h="159.60000000000002" data-glyph-ascender="133" data-glyph-descender="-26.6"></path></g></svg></g>
        </g>
  </svg>